<mxfile host="app.diagrams.net" modified="2024-08-01T12:00:31.796Z" agent="Mozilla/5.0 (X11; Ubuntu; Linux x86_64; rv:128.0) Gecko/20100101 Firefox/128.0" etag="UjRo-9LDBQuTiIUggysZ" version="24.7.1" type="device" pages="3">
  <diagram id="C5RBs43oDa-KdzZeNtuy" name="flow_chart">
    <mxGraphModel dx="1434" dy="793" grid="1" gridSize="10" guides="1" tooltips="1" connect="1" arrows="1" fold="1" page="1" pageScale="1" pageWidth="827" pageHeight="1169" math="0" shadow="0">
      <root>
        <mxCell id="WIyWlLk6GJQsqaUBKTNV-0" />
        <mxCell id="WIyWlLk6GJQsqaUBKTNV-1" parent="WIyWlLk6GJQsqaUBKTNV-0" />
        <mxCell id="WIyWlLk6GJQsqaUBKTNV-4" value="Yes" style="rounded=0;html=1;jettySize=auto;orthogonalLoop=1;fontSize=11;endArrow=block;endFill=0;endSize=8;strokeWidth=1;shadow=0;labelBackgroundColor=none;edgeStyle=orthogonalEdgeStyle;" parent="WIyWlLk6GJQsqaUBKTNV-1" source="WIyWlLk6GJQsqaUBKTNV-6" edge="1">
          <mxGeometry x="-1" y="-58" relative="1" as="geometry">
            <mxPoint x="-30" y="-8" as="offset" />
            <mxPoint x="190" y="1120" as="targetPoint" />
          </mxGeometry>
        </mxCell>
        <mxCell id="EtLEllNZG6sJMNKWAGNf-31" style="edgeStyle=orthogonalEdgeStyle;rounded=0;orthogonalLoop=1;jettySize=auto;html=1;" edge="1" parent="WIyWlLk6GJQsqaUBKTNV-1" source="WIyWlLk6GJQsqaUBKTNV-6">
          <mxGeometry relative="1" as="geometry">
            <mxPoint x="130" y="1150" as="targetPoint" />
          </mxGeometry>
        </mxCell>
        <mxCell id="EtLEllNZG6sJMNKWAGNf-32" value="No" style="edgeLabel;html=1;align=center;verticalAlign=middle;resizable=0;points=[];" vertex="1" connectable="0" parent="EtLEllNZG6sJMNKWAGNf-31">
          <mxGeometry x="0.1913" y="6" relative="1" as="geometry">
            <mxPoint x="48" y="-64" as="offset" />
          </mxGeometry>
        </mxCell>
        <mxCell id="WIyWlLk6GJQsqaUBKTNV-6" value="X" style="rhombus;whiteSpace=wrap;html=1;shadow=0;fontFamily=Helvetica;fontSize=12;align=center;strokeWidth=1;spacing=6;spacingTop=-4;" parent="WIyWlLk6GJQsqaUBKTNV-1" vertex="1">
          <mxGeometry x="40" y="1060" width="100" height="80" as="geometry" />
        </mxCell>
        <mxCell id="EtLEllNZG6sJMNKWAGNf-0" value="Inicialization" style="swimlane;whiteSpace=wrap;html=1;" vertex="1" parent="WIyWlLk6GJQsqaUBKTNV-1">
          <mxGeometry x="40" y="30" width="290" height="450" as="geometry" />
        </mxCell>
        <mxCell id="EtLEllNZG6sJMNKWAGNf-52" style="edgeStyle=orthogonalEdgeStyle;rounded=0;orthogonalLoop=1;jettySize=auto;html=1;exitX=0.5;exitY=1;exitDx=0;exitDy=0;" edge="1" parent="EtLEllNZG6sJMNKWAGNf-0" source="EtLEllNZG6sJMNKWAGNf-5" target="WIyWlLk6GJQsqaUBKTNV-3">
          <mxGeometry relative="1" as="geometry" />
        </mxCell>
        <mxCell id="EtLEllNZG6sJMNKWAGNf-5" value="Coordinate system initialization" style="rounded=1;whiteSpace=wrap;html=1;fontSize=12;glass=0;strokeWidth=1;shadow=0;" vertex="1" parent="EtLEllNZG6sJMNKWAGNf-0">
          <mxGeometry x="85" y="120" width="120" height="40" as="geometry" />
        </mxCell>
        <mxCell id="EtLEllNZG6sJMNKWAGNf-51" style="edgeStyle=orthogonalEdgeStyle;rounded=0;orthogonalLoop=1;jettySize=auto;html=1;exitX=0.5;exitY=1;exitDx=0;exitDy=0;entryX=0.5;entryY=0;entryDx=0;entryDy=0;" edge="1" parent="EtLEllNZG6sJMNKWAGNf-0" source="EtLEllNZG6sJMNKWAGNf-4" target="EtLEllNZG6sJMNKWAGNf-5">
          <mxGeometry relative="1" as="geometry" />
        </mxCell>
        <mxCell id="EtLEllNZG6sJMNKWAGNf-4" value="Initialization of all hardware" style="rounded=1;whiteSpace=wrap;html=1;fontSize=12;glass=0;strokeWidth=1;shadow=0;" vertex="1" parent="EtLEllNZG6sJMNKWAGNf-0">
          <mxGeometry x="85" y="40" width="120" height="40" as="geometry" />
        </mxCell>
        <mxCell id="EtLEllNZG6sJMNKWAGNf-3" value="Acquire initial position" style="rounded=1;whiteSpace=wrap;html=1;fontSize=12;glass=0;strokeWidth=1;shadow=0;" vertex="1" parent="EtLEllNZG6sJMNKWAGNf-0">
          <mxGeometry x="85" y="280" width="120" height="40" as="geometry" />
        </mxCell>
        <mxCell id="EtLEllNZG6sJMNKWAGNf-53" style="edgeStyle=orthogonalEdgeStyle;rounded=0;orthogonalLoop=1;jettySize=auto;html=1;exitX=0.5;exitY=1;exitDx=0;exitDy=0;entryX=0.5;entryY=0;entryDx=0;entryDy=0;" edge="1" parent="EtLEllNZG6sJMNKWAGNf-0" source="WIyWlLk6GJQsqaUBKTNV-3" target="EtLEllNZG6sJMNKWAGNf-3">
          <mxGeometry relative="1" as="geometry" />
        </mxCell>
        <mxCell id="WIyWlLk6GJQsqaUBKTNV-3" value="Module inicialization" style="rounded=1;whiteSpace=wrap;html=1;fontSize=12;glass=0;strokeWidth=1;shadow=0;" parent="EtLEllNZG6sJMNKWAGNf-0" vertex="1">
          <mxGeometry x="85" y="200" width="120" height="40" as="geometry" />
        </mxCell>
        <mxCell id="EtLEllNZG6sJMNKWAGNf-1" value="Perception" style="swimlane;whiteSpace=wrap;html=1;" vertex="1" parent="WIyWlLk6GJQsqaUBKTNV-1">
          <mxGeometry x="390" y="30" width="290" height="360" as="geometry" />
        </mxCell>
        <mxCell id="EtLEllNZG6sJMNKWAGNf-69" style="edgeStyle=orthogonalEdgeStyle;rounded=0;orthogonalLoop=1;jettySize=auto;html=1;exitX=0.5;exitY=1;exitDx=0;exitDy=0;entryX=0.5;entryY=0;entryDx=0;entryDy=0;" edge="1" parent="EtLEllNZG6sJMNKWAGNf-1" source="EtLEllNZG6sJMNKWAGNf-12" target="EtLEllNZG6sJMNKWAGNf-68">
          <mxGeometry relative="1" as="geometry" />
        </mxCell>
        <mxCell id="EtLEllNZG6sJMNKWAGNf-12" value="Cotton detection and classification" style="rounded=1;whiteSpace=wrap;html=1;fontSize=12;glass=0;strokeWidth=1;shadow=0;" vertex="1" parent="EtLEllNZG6sJMNKWAGNf-1">
          <mxGeometry x="85" y="40" width="120" height="40" as="geometry" />
        </mxCell>
        <mxCell id="EtLEllNZG6sJMNKWAGNf-16" style="edgeStyle=orthogonalEdgeStyle;rounded=0;orthogonalLoop=1;jettySize=auto;html=1;exitX=0.5;exitY=1;exitDx=0;exitDy=0;entryX=0.5;entryY=0;entryDx=0;entryDy=0;" edge="1" parent="EtLEllNZG6sJMNKWAGNf-1" source="EtLEllNZG6sJMNKWAGNf-11" target="EtLEllNZG6sJMNKWAGNf-10">
          <mxGeometry relative="1" as="geometry" />
        </mxCell>
        <mxCell id="EtLEllNZG6sJMNKWAGNf-11" value="Semantic segmentation" style="rounded=1;whiteSpace=wrap;html=1;fontSize=12;glass=0;strokeWidth=1;shadow=0;" vertex="1" parent="EtLEllNZG6sJMNKWAGNf-1">
          <mxGeometry x="85" y="220" width="120" height="40" as="geometry" />
        </mxCell>
        <mxCell id="EtLEllNZG6sJMNKWAGNf-10" value="Centroid calculation" style="rounded=1;whiteSpace=wrap;html=1;fontSize=12;glass=0;strokeWidth=1;shadow=0;" vertex="1" parent="EtLEllNZG6sJMNKWAGNf-1">
          <mxGeometry x="85" y="290" width="120" height="40" as="geometry" />
        </mxCell>
        <mxCell id="EtLEllNZG6sJMNKWAGNf-68" value="Ready-to-harvest cotton?" style="rhombus;whiteSpace=wrap;html=1;shadow=0;fontFamily=Helvetica;fontSize=12;align=center;strokeWidth=1;spacing=6;spacingTop=-4;" vertex="1" parent="EtLEllNZG6sJMNKWAGNf-1">
          <mxGeometry x="57.5" y="100" width="175" height="80" as="geometry" />
        </mxCell>
        <mxCell id="EtLEllNZG6sJMNKWAGNf-17" value="Localization" style="swimlane;whiteSpace=wrap;html=1;" vertex="1" parent="WIyWlLk6GJQsqaUBKTNV-1">
          <mxGeometry x="740" y="250" width="290" height="190" as="geometry" />
        </mxCell>
        <mxCell id="EtLEllNZG6sJMNKWAGNf-20" value="Cotton world coordinate calculation" style="rounded=1;whiteSpace=wrap;html=1;fontSize=12;glass=0;strokeWidth=1;shadow=0;" vertex="1" parent="EtLEllNZG6sJMNKWAGNf-17">
          <mxGeometry x="57.5" y="120" width="175" height="40" as="geometry" />
        </mxCell>
        <mxCell id="EtLEllNZG6sJMNKWAGNf-26" style="edgeStyle=orthogonalEdgeStyle;rounded=0;orthogonalLoop=1;jettySize=auto;html=1;exitX=0.5;exitY=1;exitDx=0;exitDy=0;entryX=0.5;entryY=0;entryDx=0;entryDy=0;" edge="1" parent="EtLEllNZG6sJMNKWAGNf-17" source="EtLEllNZG6sJMNKWAGNf-25" target="EtLEllNZG6sJMNKWAGNf-20">
          <mxGeometry relative="1" as="geometry" />
        </mxCell>
        <mxCell id="EtLEllNZG6sJMNKWAGNf-25" value="Cotton boll depthÂ¹" style="rounded=1;whiteSpace=wrap;html=1;fontSize=12;glass=0;strokeWidth=1;shadow=0;" vertex="1" parent="EtLEllNZG6sJMNKWAGNf-17">
          <mxGeometry x="57.5" y="40" width="175" height="40" as="geometry" />
        </mxCell>
        <mxCell id="EtLEllNZG6sJMNKWAGNf-27" value="Cotton boll selection" style="swimlane;whiteSpace=wrap;html=1;" vertex="1" parent="WIyWlLk6GJQsqaUBKTNV-1">
          <mxGeometry x="740" y="30" width="290" height="190" as="geometry" />
        </mxCell>
        <mxCell id="EtLEllNZG6sJMNKWAGNf-28" value="Cotton boll selection by criteria" style="rounded=1;whiteSpace=wrap;html=1;fontSize=12;glass=0;strokeWidth=1;shadow=0;" vertex="1" parent="EtLEllNZG6sJMNKWAGNf-27">
          <mxGeometry x="57.5" y="120" width="175" height="40" as="geometry" />
        </mxCell>
        <mxCell id="EtLEllNZG6sJMNKWAGNf-29" style="edgeStyle=orthogonalEdgeStyle;rounded=0;orthogonalLoop=1;jettySize=auto;html=1;exitX=0.5;exitY=1;exitDx=0;exitDy=0;entryX=0.5;entryY=0;entryDx=0;entryDy=0;" edge="1" parent="EtLEllNZG6sJMNKWAGNf-27" source="EtLEllNZG6sJMNKWAGNf-30" target="EtLEllNZG6sJMNKWAGNf-28">
          <mxGeometry relative="1" as="geometry" />
        </mxCell>
        <mxCell id="EtLEllNZG6sJMNKWAGNf-30" value="Priority criteria application" style="rounded=1;whiteSpace=wrap;html=1;fontSize=12;glass=0;strokeWidth=1;shadow=0;" vertex="1" parent="EtLEllNZG6sJMNKWAGNf-27">
          <mxGeometry x="57.5" y="40" width="175" height="40" as="geometry" />
        </mxCell>
        <mxCell id="EtLEllNZG6sJMNKWAGNf-33" value="Manipulation" style="swimlane;whiteSpace=wrap;html=1;" vertex="1" parent="WIyWlLk6GJQsqaUBKTNV-1">
          <mxGeometry x="1096" y="30" width="290" height="400" as="geometry" />
        </mxCell>
        <mxCell id="EtLEllNZG6sJMNKWAGNf-39" style="edgeStyle=orthogonalEdgeStyle;rounded=0;orthogonalLoop=1;jettySize=auto;html=1;exitX=0.5;exitY=1;exitDx=0;exitDy=0;entryX=0.5;entryY=0;entryDx=0;entryDy=0;" edge="1" parent="EtLEllNZG6sJMNKWAGNf-33" source="EtLEllNZG6sJMNKWAGNf-34" target="EtLEllNZG6sJMNKWAGNf-37">
          <mxGeometry relative="1" as="geometry" />
        </mxCell>
        <mxCell id="EtLEllNZG6sJMNKWAGNf-34" value="Optimal gripping algorithm for cotton extraction (pose)" style="rounded=1;whiteSpace=wrap;html=1;fontSize=12;glass=0;strokeWidth=1;shadow=0;" vertex="1" parent="EtLEllNZG6sJMNKWAGNf-33">
          <mxGeometry x="57.5" y="120" width="175" height="40" as="geometry" />
        </mxCell>
        <mxCell id="EtLEllNZG6sJMNKWAGNf-35" style="edgeStyle=orthogonalEdgeStyle;rounded=0;orthogonalLoop=1;jettySize=auto;html=1;exitX=0.5;exitY=1;exitDx=0;exitDy=0;entryX=0.5;entryY=0;entryDx=0;entryDy=0;" edge="1" parent="EtLEllNZG6sJMNKWAGNf-33" source="EtLEllNZG6sJMNKWAGNf-36" target="EtLEllNZG6sJMNKWAGNf-34">
          <mxGeometry relative="1" as="geometry" />
        </mxCell>
        <mxCell id="EtLEllNZG6sJMNKWAGNf-36" value="Obstacle evasion algorithm for robotic arm path planning" style="rounded=1;whiteSpace=wrap;html=1;fontSize=12;glass=0;strokeWidth=1;shadow=0;" vertex="1" parent="EtLEllNZG6sJMNKWAGNf-33">
          <mxGeometry x="57.5" y="50" width="175" height="40" as="geometry" />
        </mxCell>
        <mxCell id="EtLEllNZG6sJMNKWAGNf-42" style="edgeStyle=orthogonalEdgeStyle;rounded=0;orthogonalLoop=1;jettySize=auto;html=1;exitX=0.5;exitY=1;exitDx=0;exitDy=0;entryX=0.5;entryY=0;entryDx=0;entryDy=0;" edge="1" parent="EtLEllNZG6sJMNKWAGNf-33" source="EtLEllNZG6sJMNKWAGNf-37" target="EtLEllNZG6sJMNKWAGNf-40">
          <mxGeometry relative="1" as="geometry" />
        </mxCell>
        <mxCell id="EtLEllNZG6sJMNKWAGNf-37" value="Robotic arm movement towards goal" style="rounded=1;whiteSpace=wrap;html=1;fontSize=12;glass=0;strokeWidth=1;shadow=0;" vertex="1" parent="EtLEllNZG6sJMNKWAGNf-33">
          <mxGeometry x="57.5" y="190" width="175" height="40" as="geometry" />
        </mxCell>
        <mxCell id="EtLEllNZG6sJMNKWAGNf-40" value="Cotton boll vacuum (turn on vacuum / turn off)" style="rounded=1;whiteSpace=wrap;html=1;fontSize=12;glass=0;strokeWidth=1;shadow=0;" vertex="1" parent="EtLEllNZG6sJMNKWAGNf-33">
          <mxGeometry x="57.5" y="260" width="175" height="40" as="geometry" />
        </mxCell>
        <mxCell id="EtLEllNZG6sJMNKWAGNf-56" style="edgeStyle=orthogonalEdgeStyle;rounded=0;orthogonalLoop=1;jettySize=auto;html=1;exitX=1;exitY=0.5;exitDx=0;exitDy=0;entryX=0;entryY=0.5;entryDx=0;entryDy=0;" edge="1" parent="WIyWlLk6GJQsqaUBKTNV-1" source="EtLEllNZG6sJMNKWAGNf-3" target="EtLEllNZG6sJMNKWAGNf-12">
          <mxGeometry relative="1" as="geometry" />
        </mxCell>
        <mxCell id="EtLEllNZG6sJMNKWAGNf-57" value="End" style="swimlane;whiteSpace=wrap;html=1;" vertex="1" parent="WIyWlLk6GJQsqaUBKTNV-1">
          <mxGeometry x="40" y="510" width="290" height="100" as="geometry" />
        </mxCell>
        <mxCell id="EtLEllNZG6sJMNKWAGNf-61" value="Turn down" style="rounded=1;whiteSpace=wrap;html=1;fontSize=12;glass=0;strokeWidth=1;shadow=0;" vertex="1" parent="EtLEllNZG6sJMNKWAGNf-57">
          <mxGeometry x="85" y="40" width="120" height="40" as="geometry" />
        </mxCell>
        <mxCell id="EtLEllNZG6sJMNKWAGNf-65" value="No" style="rounded=0;html=1;jettySize=auto;orthogonalLoop=1;fontSize=11;endArrow=block;endFill=0;endSize=8;strokeWidth=1;shadow=0;labelBackgroundColor=none;edgeStyle=orthogonalEdgeStyle;entryX=1;entryY=0.5;entryDx=0;entryDy=0;" edge="1" parent="WIyWlLk6GJQsqaUBKTNV-1" source="EtLEllNZG6sJMNKWAGNf-68" target="EtLEllNZG6sJMNKWAGNf-61">
          <mxGeometry x="-0.9419" y="-10" relative="1" as="geometry">
            <mxPoint x="1" as="offset" />
            <mxPoint x="630" y="210" as="targetPoint" />
          </mxGeometry>
        </mxCell>
        <mxCell id="EtLEllNZG6sJMNKWAGNf-66" style="edgeStyle=orthogonalEdgeStyle;rounded=0;orthogonalLoop=1;jettySize=auto;html=1;entryX=0;entryY=0.5;entryDx=0;entryDy=0;exitX=1;exitY=0.5;exitDx=0;exitDy=0;" edge="1" parent="WIyWlLk6GJQsqaUBKTNV-1" source="EtLEllNZG6sJMNKWAGNf-68" target="EtLEllNZG6sJMNKWAGNf-30">
          <mxGeometry relative="1" as="geometry">
            <mxPoint x="570" y="240" as="targetPoint" />
            <Array as="points">
              <mxPoint x="710" y="170" />
              <mxPoint x="710" y="90" />
            </Array>
          </mxGeometry>
        </mxCell>
        <mxCell id="EtLEllNZG6sJMNKWAGNf-67" value="Yes" style="edgeLabel;html=1;align=center;verticalAlign=middle;resizable=0;points=[];" vertex="1" connectable="0" parent="EtLEllNZG6sJMNKWAGNf-66">
          <mxGeometry x="0.1913" y="6" relative="1" as="geometry">
            <mxPoint x="-74" y="49" as="offset" />
          </mxGeometry>
        </mxCell>
        <mxCell id="EtLEllNZG6sJMNKWAGNf-70" style="edgeStyle=orthogonalEdgeStyle;rounded=0;orthogonalLoop=1;jettySize=auto;html=1;exitX=0.5;exitY=1;exitDx=0;exitDy=0;entryX=0.5;entryY=0;entryDx=0;entryDy=0;" edge="1" parent="WIyWlLk6GJQsqaUBKTNV-1" source="EtLEllNZG6sJMNKWAGNf-28" target="EtLEllNZG6sJMNKWAGNf-11">
          <mxGeometry relative="1" as="geometry">
            <Array as="points">
              <mxPoint x="885" y="230" />
              <mxPoint x="535" y="230" />
            </Array>
          </mxGeometry>
        </mxCell>
        <mxCell id="EtLEllNZG6sJMNKWAGNf-71" style="edgeStyle=orthogonalEdgeStyle;rounded=0;orthogonalLoop=1;jettySize=auto;html=1;exitX=0.5;exitY=1;exitDx=0;exitDy=0;entryX=0;entryY=0.5;entryDx=0;entryDy=0;" edge="1" parent="WIyWlLk6GJQsqaUBKTNV-1" source="EtLEllNZG6sJMNKWAGNf-10" target="EtLEllNZG6sJMNKWAGNf-25">
          <mxGeometry relative="1" as="geometry">
            <Array as="points">
              <mxPoint x="535" y="400" />
              <mxPoint x="710" y="400" />
              <mxPoint x="710" y="310" />
            </Array>
          </mxGeometry>
        </mxCell>
        <mxCell id="EtLEllNZG6sJMNKWAGNf-72" style="edgeStyle=orthogonalEdgeStyle;rounded=0;orthogonalLoop=1;jettySize=auto;html=1;exitX=0.5;exitY=1;exitDx=0;exitDy=0;entryX=0;entryY=0.5;entryDx=0;entryDy=0;" edge="1" parent="WIyWlLk6GJQsqaUBKTNV-1" source="EtLEllNZG6sJMNKWAGNf-20" target="EtLEllNZG6sJMNKWAGNf-36">
          <mxGeometry relative="1" as="geometry">
            <Array as="points">
              <mxPoint x="885" y="450" />
              <mxPoint x="1063" y="450" />
              <mxPoint x="1063" y="100" />
            </Array>
          </mxGeometry>
        </mxCell>
        <mxCell id="EtLEllNZG6sJMNKWAGNf-45" style="edgeStyle=orthogonalEdgeStyle;rounded=0;orthogonalLoop=1;jettySize=auto;html=1;exitX=0.5;exitY=1;exitDx=0;exitDy=0;entryX=0.5;entryY=1;entryDx=0;entryDy=0;" edge="1" parent="WIyWlLk6GJQsqaUBKTNV-1" source="EtLEllNZG6sJMNKWAGNf-40" target="EtLEllNZG6sJMNKWAGNf-3">
          <mxGeometry relative="1" as="geometry">
            <mxPoint x="1241" y="360" as="targetPoint" />
            <Array as="points">
              <mxPoint x="1241" y="490" />
              <mxPoint x="185" y="490" />
            </Array>
          </mxGeometry>
        </mxCell>
        <mxCell id="EtLEllNZG6sJMNKWAGNf-73" value="&lt;div align=&quot;left&quot;&gt;1 = Cotton boll depth depends on the place of the camera where the cotton is placed, in a sense that &lt;br&gt;&lt;/div&gt;&lt;div align=&quot;left&quot;&gt;if the cotton boll is out of bounds for depth camera, the camera has to be adjusted.&lt;br&gt;&lt;/div&gt;" style="text;html=1;align=center;verticalAlign=middle;resizable=0;points=[];autosize=1;strokeColor=none;fillColor=none;" vertex="1" parent="WIyWlLk6GJQsqaUBKTNV-1">
          <mxGeometry x="30" y="990" width="560" height="40" as="geometry" />
        </mxCell>
      </root>
    </mxGraphModel>
  </diagram>
  <diagram name="State machine" id="ATiwNKiXTd7V0-HR6IQY">
    <mxGraphModel dx="1362" dy="766" grid="1" gridSize="10" guides="1" tooltips="1" connect="1" arrows="1" fold="1" page="1" pageScale="1" pageWidth="827" pageHeight="1169" math="0" shadow="0">
      <root>
        <mxCell id="boYRj-f2sMHjeSyp8Enr-0" />
        <mxCell id="boYRj-f2sMHjeSyp8Enr-1" parent="boYRj-f2sMHjeSyp8Enr-0" />
        <mxCell id="boYRj-f2sMHjeSyp8Enr-2" value="Yes" style="rounded=0;html=1;jettySize=auto;orthogonalLoop=1;fontSize=11;endArrow=block;endFill=0;endSize=8;strokeWidth=1;shadow=0;labelBackgroundColor=none;edgeStyle=orthogonalEdgeStyle;" edge="1" parent="boYRj-f2sMHjeSyp8Enr-1" source="boYRj-f2sMHjeSyp8Enr-5">
          <mxGeometry x="-1" y="-58" relative="1" as="geometry">
            <mxPoint x="-30" y="-8" as="offset" />
            <mxPoint x="190" y="1120" as="targetPoint" />
          </mxGeometry>
        </mxCell>
        <mxCell id="boYRj-f2sMHjeSyp8Enr-3" style="edgeStyle=orthogonalEdgeStyle;rounded=0;orthogonalLoop=1;jettySize=auto;html=1;" edge="1" parent="boYRj-f2sMHjeSyp8Enr-1" source="boYRj-f2sMHjeSyp8Enr-5">
          <mxGeometry relative="1" as="geometry">
            <mxPoint x="130" y="1150" as="targetPoint" />
          </mxGeometry>
        </mxCell>
        <mxCell id="boYRj-f2sMHjeSyp8Enr-4" value="No" style="edgeLabel;html=1;align=center;verticalAlign=middle;resizable=0;points=[];" vertex="1" connectable="0" parent="boYRj-f2sMHjeSyp8Enr-3">
          <mxGeometry x="0.1913" y="6" relative="1" as="geometry">
            <mxPoint x="48" y="-64" as="offset" />
          </mxGeometry>
        </mxCell>
        <mxCell id="boYRj-f2sMHjeSyp8Enr-5" value="X" style="rhombus;whiteSpace=wrap;html=1;shadow=0;fontFamily=Helvetica;fontSize=12;align=center;strokeWidth=1;spacing=6;spacingTop=-4;" vertex="1" parent="boYRj-f2sMHjeSyp8Enr-1">
          <mxGeometry x="40" y="1060" width="100" height="80" as="geometry" />
        </mxCell>
        <mxCell id="boYRj-f2sMHjeSyp8Enr-6" value="Inicialization" style="swimlane;whiteSpace=wrap;html=1;" vertex="1" parent="boYRj-f2sMHjeSyp8Enr-1">
          <mxGeometry x="40" y="30" width="290" height="340" as="geometry" />
        </mxCell>
        <mxCell id="boYRj-f2sMHjeSyp8Enr-7" style="edgeStyle=orthogonalEdgeStyle;rounded=0;orthogonalLoop=1;jettySize=auto;html=1;exitX=0.5;exitY=1;exitDx=0;exitDy=0;" edge="1" parent="boYRj-f2sMHjeSyp8Enr-6" source="boYRj-f2sMHjeSyp8Enr-8" target="boYRj-f2sMHjeSyp8Enr-13">
          <mxGeometry relative="1" as="geometry" />
        </mxCell>
        <mxCell id="boYRj-f2sMHjeSyp8Enr-8" value="Coordinate system initialization" style="rounded=1;whiteSpace=wrap;html=1;fontSize=12;glass=0;strokeWidth=1;shadow=0;" vertex="1" parent="boYRj-f2sMHjeSyp8Enr-6">
          <mxGeometry x="85" y="120" width="120" height="40" as="geometry" />
        </mxCell>
        <mxCell id="boYRj-f2sMHjeSyp8Enr-9" style="edgeStyle=orthogonalEdgeStyle;rounded=0;orthogonalLoop=1;jettySize=auto;html=1;exitX=0.5;exitY=1;exitDx=0;exitDy=0;entryX=0.5;entryY=0;entryDx=0;entryDy=0;" edge="1" parent="boYRj-f2sMHjeSyp8Enr-6" source="boYRj-f2sMHjeSyp8Enr-10" target="boYRj-f2sMHjeSyp8Enr-8">
          <mxGeometry relative="1" as="geometry" />
        </mxCell>
        <mxCell id="boYRj-f2sMHjeSyp8Enr-10" value="Initialization of all hardware" style="rounded=1;whiteSpace=wrap;html=1;fontSize=12;glass=0;strokeWidth=1;shadow=0;" vertex="1" parent="boYRj-f2sMHjeSyp8Enr-6">
          <mxGeometry x="85" y="40" width="120" height="40" as="geometry" />
        </mxCell>
        <mxCell id="boYRj-f2sMHjeSyp8Enr-11" value="Acquire initial position" style="rounded=1;whiteSpace=wrap;html=1;fontSize=12;glass=0;strokeWidth=1;shadow=0;" vertex="1" parent="boYRj-f2sMHjeSyp8Enr-6">
          <mxGeometry x="85" y="280" width="120" height="40" as="geometry" />
        </mxCell>
        <mxCell id="boYRj-f2sMHjeSyp8Enr-12" style="edgeStyle=orthogonalEdgeStyle;rounded=0;orthogonalLoop=1;jettySize=auto;html=1;exitX=0.5;exitY=1;exitDx=0;exitDy=0;entryX=0.5;entryY=0;entryDx=0;entryDy=0;" edge="1" parent="boYRj-f2sMHjeSyp8Enr-6" source="boYRj-f2sMHjeSyp8Enr-13" target="boYRj-f2sMHjeSyp8Enr-11">
          <mxGeometry relative="1" as="geometry" />
        </mxCell>
        <mxCell id="boYRj-f2sMHjeSyp8Enr-13" value="Module inicialization" style="rounded=1;whiteSpace=wrap;html=1;fontSize=12;glass=0;strokeWidth=1;shadow=0;" vertex="1" parent="boYRj-f2sMHjeSyp8Enr-6">
          <mxGeometry x="85" y="200" width="120" height="40" as="geometry" />
        </mxCell>
        <mxCell id="uNh1HT8bWZB4btOi49Ez-0" value="" style="shape=umlActor;verticalLabelPosition=bottom;verticalAlign=top;html=1;outlineConnect=0;" vertex="1" parent="boYRj-f2sMHjeSyp8Enr-6">
          <mxGeometry x="205" y="40" width="15" height="20" as="geometry" />
        </mxCell>
        <mxCell id="boYRj-f2sMHjeSyp8Enr-14" value="Perception" style="swimlane;whiteSpace=wrap;html=1;" vertex="1" parent="boYRj-f2sMHjeSyp8Enr-1">
          <mxGeometry x="390" y="30" width="290" height="100" as="geometry" />
        </mxCell>
        <mxCell id="boYRj-f2sMHjeSyp8Enr-16" value="Cotton detection and classification" style="rounded=1;whiteSpace=wrap;html=1;fontSize=12;glass=0;strokeWidth=1;shadow=0;" vertex="1" parent="boYRj-f2sMHjeSyp8Enr-14">
          <mxGeometry x="85" y="40" width="120" height="40" as="geometry" />
        </mxCell>
        <mxCell id="boYRj-f2sMHjeSyp8Enr-21" value="Localization" style="swimlane;whiteSpace=wrap;html=1;" vertex="1" parent="boYRj-f2sMHjeSyp8Enr-1">
          <mxGeometry x="740" y="370" width="290" height="260" as="geometry" />
        </mxCell>
        <mxCell id="boYRj-f2sMHjeSyp8Enr-22" value="Cotton world coordinate calculation" style="rounded=1;whiteSpace=wrap;html=1;fontSize=12;glass=0;strokeWidth=1;shadow=0;" vertex="1" parent="boYRj-f2sMHjeSyp8Enr-21">
          <mxGeometry x="57.5" y="200" width="175" height="40" as="geometry" />
        </mxCell>
        <mxCell id="1AiGvCFT_YBe-Xd3jdfm-20" style="edgeStyle=orthogonalEdgeStyle;rounded=0;orthogonalLoop=1;jettySize=auto;html=1;exitX=0.5;exitY=1;exitDx=0;exitDy=0;entryX=0.5;entryY=0;entryDx=0;entryDy=0;" edge="1" parent="boYRj-f2sMHjeSyp8Enr-21" source="1AiGvCFT_YBe-Xd3jdfm-18" target="1AiGvCFT_YBe-Xd3jdfm-19">
          <mxGeometry relative="1" as="geometry" />
        </mxCell>
        <mxCell id="1AiGvCFT_YBe-Xd3jdfm-18" value="Adjust camera to cotton boll position" style="rounded=1;whiteSpace=wrap;html=1;fontSize=12;glass=0;strokeWidth=1;shadow=0;" vertex="1" parent="boYRj-f2sMHjeSyp8Enr-21">
          <mxGeometry x="57.5" y="40" width="175" height="40" as="geometry" />
        </mxCell>
        <mxCell id="1AiGvCFT_YBe-Xd3jdfm-21" style="edgeStyle=orthogonalEdgeStyle;rounded=0;orthogonalLoop=1;jettySize=auto;html=1;exitX=0.5;exitY=1;exitDx=0;exitDy=0;entryX=0.5;entryY=0;entryDx=0;entryDy=0;" edge="1" parent="boYRj-f2sMHjeSyp8Enr-21" source="1AiGvCFT_YBe-Xd3jdfm-19" target="boYRj-f2sMHjeSyp8Enr-22">
          <mxGeometry relative="1" as="geometry" />
        </mxCell>
        <mxCell id="1AiGvCFT_YBe-Xd3jdfm-19" value="Cotton boll depthÂ¹" style="rounded=1;whiteSpace=wrap;html=1;fontSize=12;glass=0;strokeWidth=1;shadow=0;" vertex="1" parent="boYRj-f2sMHjeSyp8Enr-21">
          <mxGeometry x="57.5" y="120" width="175" height="40" as="geometry" />
        </mxCell>
        <mxCell id="boYRj-f2sMHjeSyp8Enr-25" value="&lt;div&gt;Cotton boll Selection&lt;/div&gt;" style="swimlane;whiteSpace=wrap;html=1;" vertex="1" parent="boYRj-f2sMHjeSyp8Enr-1">
          <mxGeometry x="740" y="30" width="290" height="310" as="geometry" />
        </mxCell>
        <mxCell id="boYRj-f2sMHjeSyp8Enr-26" value="Cotton boll selection by criteria" style="rounded=1;whiteSpace=wrap;html=1;fontSize=12;glass=0;strokeWidth=1;shadow=0;" vertex="1" parent="boYRj-f2sMHjeSyp8Enr-25">
          <mxGeometry x="57.5" y="250" width="175" height="40" as="geometry" />
        </mxCell>
        <mxCell id="boYRj-f2sMHjeSyp8Enr-27" style="edgeStyle=orthogonalEdgeStyle;rounded=0;orthogonalLoop=1;jettySize=auto;html=1;exitX=0.5;exitY=1;exitDx=0;exitDy=0;entryX=0.5;entryY=0;entryDx=0;entryDy=0;" edge="1" parent="boYRj-f2sMHjeSyp8Enr-25" source="boYRj-f2sMHjeSyp8Enr-28" target="boYRj-f2sMHjeSyp8Enr-26">
          <mxGeometry relative="1" as="geometry" />
        </mxCell>
        <mxCell id="boYRj-f2sMHjeSyp8Enr-28" value="Priority criteria application" style="rounded=1;whiteSpace=wrap;html=1;fontSize=12;glass=0;strokeWidth=1;shadow=0;" vertex="1" parent="boYRj-f2sMHjeSyp8Enr-25">
          <mxGeometry x="57.5" y="170" width="175" height="40" as="geometry" />
        </mxCell>
        <mxCell id="boYRj-f2sMHjeSyp8Enr-20" value="Ready-to-harvest cotton?" style="rhombus;whiteSpace=wrap;html=1;shadow=0;fontFamily=Helvetica;fontSize=12;align=center;strokeWidth=1;spacing=6;spacingTop=-4;" vertex="1" parent="boYRj-f2sMHjeSyp8Enr-25">
          <mxGeometry x="57.5" y="50" width="175" height="80" as="geometry" />
        </mxCell>
        <mxCell id="boYRj-f2sMHjeSyp8Enr-41" style="edgeStyle=orthogonalEdgeStyle;rounded=0;orthogonalLoop=1;jettySize=auto;html=1;entryX=0.5;entryY=0;entryDx=0;entryDy=0;exitX=0.5;exitY=1;exitDx=0;exitDy=0;" edge="1" parent="boYRj-f2sMHjeSyp8Enr-25" source="boYRj-f2sMHjeSyp8Enr-20" target="boYRj-f2sMHjeSyp8Enr-28">
          <mxGeometry relative="1" as="geometry">
            <mxPoint x="-170" y="210" as="targetPoint" />
            <Array as="points">
              <mxPoint x="145" y="160" />
              <mxPoint x="145" y="160" />
            </Array>
          </mxGeometry>
        </mxCell>
        <mxCell id="boYRj-f2sMHjeSyp8Enr-42" value="Yes" style="edgeLabel;html=1;align=center;verticalAlign=middle;resizable=0;points=[];" vertex="1" connectable="0" parent="boYRj-f2sMHjeSyp8Enr-41">
          <mxGeometry x="0.1913" y="6" relative="1" as="geometry">
            <mxPoint x="9" y="-14" as="offset" />
          </mxGeometry>
        </mxCell>
        <mxCell id="boYRj-f2sMHjeSyp8Enr-29" value="Manipulation" style="swimlane;whiteSpace=wrap;html=1;" vertex="1" parent="boYRj-f2sMHjeSyp8Enr-1">
          <mxGeometry x="1096" y="30" width="290" height="400" as="geometry" />
        </mxCell>
        <mxCell id="boYRj-f2sMHjeSyp8Enr-30" style="edgeStyle=orthogonalEdgeStyle;rounded=0;orthogonalLoop=1;jettySize=auto;html=1;exitX=0.5;exitY=1;exitDx=0;exitDy=0;entryX=0.5;entryY=0;entryDx=0;entryDy=0;" edge="1" parent="boYRj-f2sMHjeSyp8Enr-29" source="boYRj-f2sMHjeSyp8Enr-31" target="boYRj-f2sMHjeSyp8Enr-35">
          <mxGeometry relative="1" as="geometry" />
        </mxCell>
        <mxCell id="boYRj-f2sMHjeSyp8Enr-31" value="Optimal gripping algorithm for cotton extraction (pose)" style="rounded=1;whiteSpace=wrap;html=1;fontSize=12;glass=0;strokeWidth=1;shadow=0;" vertex="1" parent="boYRj-f2sMHjeSyp8Enr-29">
          <mxGeometry x="57.5" y="120" width="175" height="40" as="geometry" />
        </mxCell>
        <mxCell id="boYRj-f2sMHjeSyp8Enr-32" style="edgeStyle=orthogonalEdgeStyle;rounded=0;orthogonalLoop=1;jettySize=auto;html=1;exitX=0.5;exitY=1;exitDx=0;exitDy=0;entryX=0.5;entryY=0;entryDx=0;entryDy=0;" edge="1" parent="boYRj-f2sMHjeSyp8Enr-29" source="boYRj-f2sMHjeSyp8Enr-33" target="boYRj-f2sMHjeSyp8Enr-31">
          <mxGeometry relative="1" as="geometry" />
        </mxCell>
        <mxCell id="boYRj-f2sMHjeSyp8Enr-33" value="Obstacle evasion algorithm for robotic arm path planning" style="rounded=1;whiteSpace=wrap;html=1;fontSize=12;glass=0;strokeWidth=1;shadow=0;" vertex="1" parent="boYRj-f2sMHjeSyp8Enr-29">
          <mxGeometry x="57.5" y="50" width="175" height="40" as="geometry" />
        </mxCell>
        <mxCell id="boYRj-f2sMHjeSyp8Enr-34" style="edgeStyle=orthogonalEdgeStyle;rounded=0;orthogonalLoop=1;jettySize=auto;html=1;exitX=0.5;exitY=1;exitDx=0;exitDy=0;entryX=0.5;entryY=0;entryDx=0;entryDy=0;" edge="1" parent="boYRj-f2sMHjeSyp8Enr-29" source="boYRj-f2sMHjeSyp8Enr-35" target="boYRj-f2sMHjeSyp8Enr-36">
          <mxGeometry relative="1" as="geometry" />
        </mxCell>
        <mxCell id="boYRj-f2sMHjeSyp8Enr-35" value="Robotic arm movement towards goal" style="rounded=1;whiteSpace=wrap;html=1;fontSize=12;glass=0;strokeWidth=1;shadow=0;" vertex="1" parent="boYRj-f2sMHjeSyp8Enr-29">
          <mxGeometry x="57.5" y="190" width="175" height="40" as="geometry" />
        </mxCell>
        <mxCell id="1AiGvCFT_YBe-Xd3jdfm-1" style="edgeStyle=orthogonalEdgeStyle;rounded=0;orthogonalLoop=1;jettySize=auto;html=1;exitX=0.5;exitY=1;exitDx=0;exitDy=0;entryX=0.5;entryY=0;entryDx=0;entryDy=0;" edge="1" parent="boYRj-f2sMHjeSyp8Enr-29" source="boYRj-f2sMHjeSyp8Enr-36" target="1AiGvCFT_YBe-Xd3jdfm-0">
          <mxGeometry relative="1" as="geometry" />
        </mxCell>
        <mxCell id="boYRj-f2sMHjeSyp8Enr-36" value="Cotton boll vacuum (turn on vacuum / turn off)" style="rounded=1;whiteSpace=wrap;html=1;fontSize=12;glass=0;strokeWidth=1;shadow=0;" vertex="1" parent="boYRj-f2sMHjeSyp8Enr-29">
          <mxGeometry x="57.5" y="260" width="175" height="40" as="geometry" />
        </mxCell>
        <mxCell id="1AiGvCFT_YBe-Xd3jdfm-0" value="Return to initial position" style="rounded=1;whiteSpace=wrap;html=1;fontSize=12;glass=0;strokeWidth=1;shadow=0;" vertex="1" parent="boYRj-f2sMHjeSyp8Enr-29">
          <mxGeometry x="52.5" y="330" width="180" height="40" as="geometry" />
        </mxCell>
        <mxCell id="boYRj-f2sMHjeSyp8Enr-37" style="edgeStyle=orthogonalEdgeStyle;rounded=0;orthogonalLoop=1;jettySize=auto;html=1;exitX=1;exitY=0.5;exitDx=0;exitDy=0;entryX=0;entryY=0.5;entryDx=0;entryDy=0;" edge="1" parent="boYRj-f2sMHjeSyp8Enr-1" source="boYRj-f2sMHjeSyp8Enr-11" target="boYRj-f2sMHjeSyp8Enr-16">
          <mxGeometry relative="1" as="geometry">
            <Array as="points">
              <mxPoint x="350" y="330" />
              <mxPoint x="350" y="90" />
            </Array>
          </mxGeometry>
        </mxCell>
        <mxCell id="boYRj-f2sMHjeSyp8Enr-40" value="No" style="rounded=0;html=1;jettySize=auto;orthogonalLoop=1;fontSize=11;endArrow=block;endFill=0;endSize=8;strokeWidth=1;shadow=0;labelBackgroundColor=none;edgeStyle=orthogonalEdgeStyle;entryX=1;entryY=0.5;entryDx=0;entryDy=0;" edge="1" parent="boYRj-f2sMHjeSyp8Enr-1" source="boYRj-f2sMHjeSyp8Enr-20" target="boYRj-f2sMHjeSyp8Enr-39">
          <mxGeometry x="-0.9419" y="-10" relative="1" as="geometry">
            <mxPoint x="1" as="offset" />
            <mxPoint x="630" y="210" as="targetPoint" />
            <Array as="points">
              <mxPoint x="710" y="120" />
              <mxPoint x="710" y="190" />
            </Array>
          </mxGeometry>
        </mxCell>
        <mxCell id="boYRj-f2sMHjeSyp8Enr-45" style="edgeStyle=orthogonalEdgeStyle;rounded=0;orthogonalLoop=1;jettySize=auto;html=1;exitX=1;exitY=0.5;exitDx=0;exitDy=0;entryX=0;entryY=0.5;entryDx=0;entryDy=0;" edge="1" parent="boYRj-f2sMHjeSyp8Enr-1" source="boYRj-f2sMHjeSyp8Enr-22" target="boYRj-f2sMHjeSyp8Enr-33">
          <mxGeometry relative="1" as="geometry">
            <Array as="points">
              <mxPoint x="1063" y="590" />
              <mxPoint x="1063" y="100" />
            </Array>
          </mxGeometry>
        </mxCell>
        <mxCell id="boYRj-f2sMHjeSyp8Enr-47" value="&lt;div align=&quot;left&quot;&gt;1 = Cotton boll depth depends on the place of the camera where the cotton is placed, in a sense that &lt;br&gt;&lt;/div&gt;&lt;div align=&quot;left&quot;&gt;if the cotton boll is out of bounds for depth camera, the camera has to be adjusted.&lt;br&gt;&lt;/div&gt;" style="text;html=1;align=center;verticalAlign=middle;resizable=0;points=[];autosize=1;strokeColor=none;fillColor=none;" vertex="1" parent="boYRj-f2sMHjeSyp8Enr-1">
          <mxGeometry x="30" y="990" width="560" height="40" as="geometry" />
        </mxCell>
        <mxCell id="gIMp9qYFrJdjDTQtzPnL-0" value="Segmentation" style="swimlane;whiteSpace=wrap;html=1;" vertex="1" parent="boYRj-f2sMHjeSyp8Enr-1">
          <mxGeometry x="390" y="250" width="290" height="190" as="geometry" />
        </mxCell>
        <mxCell id="boYRj-f2sMHjeSyp8Enr-18" value="Semantic segmentation" style="rounded=1;whiteSpace=wrap;html=1;fontSize=12;glass=0;strokeWidth=1;shadow=0;" vertex="1" parent="gIMp9qYFrJdjDTQtzPnL-0">
          <mxGeometry x="85" y="55" width="120" height="40" as="geometry" />
        </mxCell>
        <mxCell id="boYRj-f2sMHjeSyp8Enr-19" value="Centroid computing" style="rounded=1;whiteSpace=wrap;html=1;fontSize=12;glass=0;strokeWidth=1;shadow=0;" vertex="1" parent="gIMp9qYFrJdjDTQtzPnL-0">
          <mxGeometry x="85" y="125" width="120" height="40" as="geometry" />
        </mxCell>
        <mxCell id="boYRj-f2sMHjeSyp8Enr-17" style="edgeStyle=orthogonalEdgeStyle;rounded=0;orthogonalLoop=1;jettySize=auto;html=1;exitX=0.5;exitY=1;exitDx=0;exitDy=0;entryX=0.5;entryY=0;entryDx=0;entryDy=0;" edge="1" parent="gIMp9qYFrJdjDTQtzPnL-0" source="boYRj-f2sMHjeSyp8Enr-18" target="boYRj-f2sMHjeSyp8Enr-19">
          <mxGeometry relative="1" as="geometry" />
        </mxCell>
        <mxCell id="zxnD_jQ_8PnaqvRB9d3M-0" style="edgeStyle=orthogonalEdgeStyle;rounded=0;orthogonalLoop=1;jettySize=auto;html=1;exitX=0.5;exitY=1;exitDx=0;exitDy=0;entryX=1;entryY=0.5;entryDx=0;entryDy=0;" edge="1" parent="boYRj-f2sMHjeSyp8Enr-1" source="boYRj-f2sMHjeSyp8Enr-26" target="boYRj-f2sMHjeSyp8Enr-18">
          <mxGeometry relative="1" as="geometry">
            <mxPoint x="480" y="290" as="targetPoint" />
            <Array as="points">
              <mxPoint x="885" y="325" />
            </Array>
          </mxGeometry>
        </mxCell>
        <mxCell id="zxnD_jQ_8PnaqvRB9d3M-1" style="edgeStyle=orthogonalEdgeStyle;rounded=0;orthogonalLoop=1;jettySize=auto;html=1;exitX=0.5;exitY=1;exitDx=0;exitDy=0;entryX=0;entryY=0.5;entryDx=0;entryDy=0;" edge="1" parent="boYRj-f2sMHjeSyp8Enr-1" source="boYRj-f2sMHjeSyp8Enr-19" target="1AiGvCFT_YBe-Xd3jdfm-18">
          <mxGeometry relative="1" as="geometry">
            <mxPoint x="797.5" y="430" as="targetPoint" />
            <Array as="points">
              <mxPoint x="535" y="430" />
            </Array>
          </mxGeometry>
        </mxCell>
        <mxCell id="zxnD_jQ_8PnaqvRB9d3M-2" value="The change from flowchart to state machine is made so that every &#39;&#39;super state&#39;&#39; can be implemented as a state machine from SMACH. Every state machine can be used as a state, so we can build hierarchical state machines --&amp;gt; Every larger box is a super state (state machine), while nodes are states." style="text;html=1;align=left;verticalAlign=middle;whiteSpace=wrap;rounded=0;" vertex="1" parent="boYRj-f2sMHjeSyp8Enr-1">
          <mxGeometry x="770" y="890" width="410" height="90" as="geometry" />
        </mxCell>
        <mxCell id="uNh1HT8bWZB4btOi49Ez-4" value="&lt;div align=&quot;left&quot;&gt;DUDAS Y COMENTARIOS:&lt;/div&gt;&lt;div align=&quot;left&quot;&gt;&lt;br&gt;&lt;/div&gt;&lt;div align=&quot;left&quot;&gt;- Realmente hace falta que cuando coge un algodÃ³n, volver a hacer predicciÃ³n sobre la escena? (flecha de vacuum a &lt;br&gt;&lt;/div&gt;&lt;div&gt;initial position --&amp;gt; QuizÃ¡ podemos crear un estado despuÃ©s del vacuum que sea &#39;&#39;initial position&#39;&#39; y no volver a detectar --&amp;gt;&lt;/div&gt;&lt;div&gt;si mantenemos la soluciÃ³n actual, no merece la pena guardar el resultado de las predicciones, solo guardar el mejor!&lt;br&gt;&lt;/div&gt;" style="text;html=1;align=left;verticalAlign=middle;resizable=0;points=[];autosize=1;strokeColor=none;fillColor=none;" vertex="1" parent="boYRj-f2sMHjeSyp8Enr-1">
          <mxGeometry x="40" y="880" width="670" height="90" as="geometry" />
        </mxCell>
        <mxCell id="boYRj-f2sMHjeSyp8Enr-39" value="END" style="rounded=1;whiteSpace=wrap;html=1;fontSize=12;glass=0;strokeWidth=1;shadow=0;" vertex="1" parent="boYRj-f2sMHjeSyp8Enr-1">
          <mxGeometry x="475" y="170" width="120" height="40" as="geometry" />
        </mxCell>
        <mxCell id="1AiGvCFT_YBe-Xd3jdfm-2" style="edgeStyle=orthogonalEdgeStyle;rounded=0;orthogonalLoop=1;jettySize=auto;html=1;exitX=0;exitY=0.5;exitDx=0;exitDy=0;entryX=1;entryY=0.5;entryDx=0;entryDy=0;" edge="1" parent="boYRj-f2sMHjeSyp8Enr-1" source="1AiGvCFT_YBe-Xd3jdfm-0" target="boYRj-f2sMHjeSyp8Enr-20">
          <mxGeometry relative="1" as="geometry">
            <Array as="points">
              <mxPoint x="1080" y="380" />
              <mxPoint x="1080" y="120" />
            </Array>
          </mxGeometry>
        </mxCell>
        <mxCell id="boYRj-f2sMHjeSyp8Enr-15" style="edgeStyle=orthogonalEdgeStyle;rounded=0;orthogonalLoop=1;jettySize=auto;html=1;exitX=1;exitY=0.5;exitDx=0;exitDy=0;entryX=0.5;entryY=0;entryDx=0;entryDy=0;" edge="1" parent="boYRj-f2sMHjeSyp8Enr-1" source="boYRj-f2sMHjeSyp8Enr-16" target="boYRj-f2sMHjeSyp8Enr-20">
          <mxGeometry relative="1" as="geometry" />
        </mxCell>
        <mxCell id="1AiGvCFT_YBe-Xd3jdfm-3" value="&lt;div align=&quot;left&quot;&gt;TODO THINGS:&lt;/div&gt;&lt;div align=&quot;left&quot;&gt;&lt;br&gt;&lt;/div&gt;&lt;div align=&quot;left&quot;&gt;Tenemos que tener en cuenta que la cÃ¡mara de profundidad no siempre sacarÃ¡ todos los valores del depthmap&amp;nbsp; partir de la mÃ¡scara. Hay que aÃ±adir al workflow que, cuando eso pasa, hay que mover la cÃ¡mara&lt;/div&gt;&lt;div align=&quot;left&quot;&gt;al sitio donde se encuentra el algodÃ³n en imagen (aquÃ­ obtenemos Ã¡ngulos de euler desde centro de imagen a (u,v), rotaciÃ³n de cÃ¡mara con Ã¡ngulos y profundidad del mismo algodÃ³n (centro imagen)&lt;br&gt;&lt;/div&gt;" style="text;html=1;align=left;verticalAlign=middle;resizable=0;points=[];autosize=1;fillColor=default;" vertex="1" parent="boYRj-f2sMHjeSyp8Enr-1">
          <mxGeometry x="40" y="760" width="1140" height="70" as="geometry" />
        </mxCell>
      </root>
    </mxGraphModel>
  </diagram>
  <diagram id="tvpRiku7wyLkh5Zzr9im" name="Markov-graph">
    <mxGraphModel dx="1362" dy="766" grid="1" gridSize="10" guides="1" tooltips="1" connect="1" arrows="1" fold="1" page="1" pageScale="1" pageWidth="1100" pageHeight="850" math="0" shadow="0">
      <root>
        <mxCell id="0" />
        <mxCell id="1" parent="0" />
        <mxCell id="2PHRp15UOUHmGuB-cWmD-9" style="edgeStyle=orthogonalEdgeStyle;rounded=0;orthogonalLoop=1;jettySize=auto;html=1;exitX=1;exitY=0.5;exitDx=0;exitDy=0;" edge="1" parent="1" source="2PHRp15UOUHmGuB-cWmD-1" target="2PHRp15UOUHmGuB-cWmD-2">
          <mxGeometry relative="1" as="geometry" />
        </mxCell>
        <mxCell id="2PHRp15UOUHmGuB-cWmD-24" style="edgeStyle=orthogonalEdgeStyle;rounded=0;orthogonalLoop=1;jettySize=auto;html=1;exitX=0.5;exitY=1;exitDx=0;exitDy=0;entryX=0;entryY=0.5;entryDx=0;entryDy=0;fillColor=#60a917;strokeColor=#2D7600;" edge="1" parent="1" source="2PHRp15UOUHmGuB-cWmD-1" target="2PHRp15UOUHmGuB-cWmD-5">
          <mxGeometry relative="1" as="geometry">
            <Array as="points">
              <mxPoint x="140" y="290" />
              <mxPoint x="60" y="290" />
              <mxPoint x="60" y="425" />
            </Array>
          </mxGeometry>
        </mxCell>
        <mxCell id="2PHRp15UOUHmGuB-cWmD-1" value="Cotton Bud" style="ellipse;whiteSpace=wrap;html=1;" vertex="1" parent="1">
          <mxGeometry x="80" y="160" width="120" height="80" as="geometry" />
        </mxCell>
        <mxCell id="2PHRp15UOUHmGuB-cWmD-10" style="edgeStyle=orthogonalEdgeStyle;rounded=0;orthogonalLoop=1;jettySize=auto;html=1;exitX=1;exitY=0.5;exitDx=0;exitDy=0;entryX=0;entryY=0.5;entryDx=0;entryDy=0;" edge="1" parent="1" source="2PHRp15UOUHmGuB-cWmD-2" target="2PHRp15UOUHmGuB-cWmD-3">
          <mxGeometry relative="1" as="geometry" />
        </mxCell>
        <mxCell id="2PHRp15UOUHmGuB-cWmD-21" style="edgeStyle=orthogonalEdgeStyle;rounded=0;orthogonalLoop=1;jettySize=auto;html=1;exitX=0.5;exitY=0;exitDx=0;exitDy=0;entryX=0.5;entryY=0;entryDx=0;entryDy=0;fillColor=#60a917;strokeColor=#2D7600;" edge="1" parent="1" source="2PHRp15UOUHmGuB-cWmD-2" target="2PHRp15UOUHmGuB-cWmD-4">
          <mxGeometry relative="1" as="geometry" />
        </mxCell>
        <mxCell id="2PHRp15UOUHmGuB-cWmD-2" value="&lt;div&gt;Early Cotton&lt;/div&gt;&lt;div&gt;Flower&lt;br&gt;&lt;/div&gt;" style="ellipse;whiteSpace=wrap;html=1;" vertex="1" parent="1">
          <mxGeometry x="360" y="160" width="120" height="80" as="geometry" />
        </mxCell>
        <mxCell id="2PHRp15UOUHmGuB-cWmD-11" style="edgeStyle=orthogonalEdgeStyle;rounded=0;orthogonalLoop=1;jettySize=auto;html=1;exitX=1;exitY=0.5;exitDx=0;exitDy=0;entryX=0;entryY=0.5;entryDx=0;entryDy=0;" edge="1" parent="1" source="2PHRp15UOUHmGuB-cWmD-3" target="2PHRp15UOUHmGuB-cWmD-4">
          <mxGeometry relative="1" as="geometry" />
        </mxCell>
        <mxCell id="2PHRp15UOUHmGuB-cWmD-3" value="&lt;div&gt;Pollinized Cotton&lt;/div&gt;&lt;div&gt;Flower&lt;br&gt;&lt;/div&gt;" style="ellipse;whiteSpace=wrap;html=1;" vertex="1" parent="1">
          <mxGeometry x="630" y="160" width="120" height="80" as="geometry" />
        </mxCell>
        <mxCell id="2PHRp15UOUHmGuB-cWmD-12" style="edgeStyle=orthogonalEdgeStyle;rounded=0;orthogonalLoop=1;jettySize=auto;html=1;exitX=0.5;exitY=1;exitDx=0;exitDy=0;entryX=0.5;entryY=0;entryDx=0;entryDy=0;" edge="1" parent="1" source="2PHRp15UOUHmGuB-cWmD-4" target="2PHRp15UOUHmGuB-cWmD-5">
          <mxGeometry relative="1" as="geometry" />
        </mxCell>
        <mxCell id="2PHRp15UOUHmGuB-cWmD-4" value="Late Cotton Flower" style="ellipse;whiteSpace=wrap;html=1;" vertex="1" parent="1">
          <mxGeometry x="900" y="160" width="120" height="80" as="geometry" />
        </mxCell>
        <mxCell id="2PHRp15UOUHmGuB-cWmD-13" style="edgeStyle=orthogonalEdgeStyle;rounded=0;orthogonalLoop=1;jettySize=auto;html=1;exitX=1;exitY=0.5;exitDx=0;exitDy=0;entryX=0;entryY=0.5;entryDx=0;entryDy=0;" edge="1" parent="1" source="2PHRp15UOUHmGuB-cWmD-5" target="2PHRp15UOUHmGuB-cWmD-6">
          <mxGeometry relative="1" as="geometry" />
        </mxCell>
        <mxCell id="2PHRp15UOUHmGuB-cWmD-5" value="Early Cotton Boll" style="ellipse;whiteSpace=wrap;html=1;" vertex="1" parent="1">
          <mxGeometry x="80" y="385" width="120" height="80" as="geometry" />
        </mxCell>
        <mxCell id="2PHRp15UOUHmGuB-cWmD-14" style="edgeStyle=orthogonalEdgeStyle;rounded=0;orthogonalLoop=1;jettySize=auto;html=1;exitX=1;exitY=0.5;exitDx=0;exitDy=0;entryX=0;entryY=0.5;entryDx=0;entryDy=0;" edge="1" parent="1" source="2PHRp15UOUHmGuB-cWmD-6" target="2PHRp15UOUHmGuB-cWmD-7">
          <mxGeometry relative="1" as="geometry" />
        </mxCell>
        <mxCell id="2PHRp15UOUHmGuB-cWmD-6" value="Closed Cotton Boll" style="ellipse;whiteSpace=wrap;html=1;" vertex="1" parent="1">
          <mxGeometry x="360" y="385" width="120" height="80" as="geometry" />
        </mxCell>
        <mxCell id="2PHRp15UOUHmGuB-cWmD-15" style="edgeStyle=orthogonalEdgeStyle;rounded=0;orthogonalLoop=1;jettySize=auto;html=1;exitX=1;exitY=0.5;exitDx=0;exitDy=0;entryX=0;entryY=0.5;entryDx=0;entryDy=0;" edge="1" parent="1" source="2PHRp15UOUHmGuB-cWmD-7" target="2PHRp15UOUHmGuB-cWmD-8">
          <mxGeometry relative="1" as="geometry" />
        </mxCell>
        <mxCell id="2PHRp15UOUHmGuB-cWmD-7" value="&lt;div&gt;Open Unripe Cotton&lt;/div&gt;&lt;div&gt;Boll&lt;br&gt;&lt;/div&gt;" style="ellipse;whiteSpace=wrap;html=1;" vertex="1" parent="1">
          <mxGeometry x="630" y="385" width="120" height="80" as="geometry" />
        </mxCell>
        <mxCell id="2PHRp15UOUHmGuB-cWmD-8" value="&lt;div&gt;Ready To Harvest&lt;/div&gt;&lt;div&gt;Cotton Boll&lt;br&gt;&lt;/div&gt;" style="ellipse;whiteSpace=wrap;html=1;" vertex="1" parent="1">
          <mxGeometry x="900" y="385" width="120" height="80" as="geometry" />
        </mxCell>
        <mxCell id="2PHRp15UOUHmGuB-cWmD-17" value="" style="endArrow=classic;html=1;rounded=0;" edge="1" parent="1">
          <mxGeometry width="50" height="50" relative="1" as="geometry">
            <mxPoint x="100" y="590" as="sourcePoint" />
            <mxPoint x="160" y="590" as="targetPoint" />
          </mxGeometry>
        </mxCell>
        <mxCell id="2PHRp15UOUHmGuB-cWmD-18" value="&lt;div align=&quot;left&quot;&gt;Flow &quot;Normal de la planta&quot;&lt;br&gt;&lt;/div&gt;" style="text;html=1;align=left;verticalAlign=middle;resizable=0;points=[];autosize=1;strokeColor=none;fillColor=none;" vertex="1" parent="1">
          <mxGeometry x="170" y="580" width="160" height="30" as="geometry" />
        </mxCell>
        <mxCell id="2PHRp15UOUHmGuB-cWmD-19" value="" style="endArrow=classic;html=1;rounded=0;fillColor=#60a917;strokeColor=#2D7600;" edge="1" parent="1">
          <mxGeometry width="50" height="50" relative="1" as="geometry">
            <mxPoint x="100" y="620" as="sourcePoint" />
            <mxPoint x="160" y="620" as="targetPoint" />
          </mxGeometry>
        </mxCell>
        <mxCell id="2PHRp15UOUHmGuB-cWmD-20" value="&lt;div align=&quot;left&quot;&gt;Camino alternativo posible, segÃºn detecciones&lt;br&gt;&lt;/div&gt;" style="text;html=1;align=left;verticalAlign=middle;resizable=0;points=[];autosize=1;strokeColor=none;fillColor=none;" vertex="1" parent="1">
          <mxGeometry x="170" y="610" width="270" height="30" as="geometry" />
        </mxCell>
      </root>
    </mxGraphModel>
  </diagram>
</mxfile>
